# xmcd
#
# Track frame offsets: 
#        150
#        16385
#        27272
#        41148
#        55175
#        68243
#        82084
#        96674
#        109841
#        122933
#        133862
#        153885
#        164897
#        176406
#        186450
#        197160
#        211846
#        222315
#        233596
#        247407
#        257519
#        274946
#        287404
#        296917
#
# Disc length: 4116 seconds
#
# Revision: 4
# Processed by: cddbd v1.5.2PL0 Copyright (c) Steve Scherf et al.
# Submitted via: ExactAudioCopyFreeDBPlugin 1.0
#
DISCID=7f101218
DTITLE=Brook Benton - Brook Benton:  Eight Classic Albums [Real Gone M
DTITLE=usix box set]
DYEAR=2014
DGENRE=Rhythm and Blues
TTITLE0=Moonlight in Vermont
TTITLE1=It's Been a Long Long Time
TTITLE2=Lover Come Back to Me
TTITLE3=If You Are But a Dream
TTITLE4=Why Try to Change Me
TTITLE5=September Song
TTITLE6=Oh! What it Seemed to Be
TTITLE7=Baby Won't You Please Come Home
TTITLE8=They Can't Take That Away from Me
TTITLE9=I'll Be Around
TTITLE10=I Didn't Know Enough About You
TTITLE11=Fools Rush In (Where Angels Fear to Tread)
TTITLE12=Tell Me Now or Never
TTITLE13=Never Like This
TTITLE14=Hold My Hand
TTITLE15=May I
TTITLE16=Never a Greater Need
TTITLE17=So Many Ways
TTITLE18=If You But Knew
TTITLE19=One By One
TTITLE20=Someone to Watch Over Me
TTITLE21=Everything
TTITLE22=So Close
TTITLE23=In a Dream
EXTD=
EXTT0=
EXTT1=
EXTT2=
EXTT3=
EXTT4=
EXTT5=
EXTT6=
EXTT7=
EXTT8=
EXTT9=
EXTT10=
EXTT11=
EXTT12=
EXTT13=
EXTT14=
EXTT15=
EXTT16=
EXTT17=
EXTT18=
EXTT19=
EXTT20=
EXTT21=
EXTT22=
EXTT23=
PLAYORDER=
